<svg xmlns="http://www.w3.org/2000/svg" width="16" height="16" viewBox="0 0 57.41 46.5" fill="none">
  <path d="M15.50 40.58L15.50 40.58Q12.86 40.58 10.80 39.40Q8.74 38.22 7.63 36.16L7.63 36.16L7.49 40L3.84 40L3.84 5.92L7.87 5.92L7.87 18.11Q8.83 16.53 10.85 15.26Q12.86 13.98 15.50 13.98L15.50 13.98Q18.86 13.98 21.31 15.62Q23.76 17.25 25.10 20.22Q26.45 23.20 26.45 27.28L26.45 27.28Q26.45 31.36 25.10 34.34Q23.76 37.31 21.31 38.94Q18.86 40.58 15.50 40.58ZM15.26 36.74L15.26 36.74Q18.48 36.74 20.35 34.19Q22.22 31.65 22.22 27.28L22.22 27.28Q22.22 22.86 20.35 20.34Q18.48 17.82 15.36 17.82L15.36 17.82Q13.01 17.82 11.33 18.95Q9.65 20.08 8.76 22.19Q7.87 24.30 7.87 27.28L7.87 27.28Q7.87 30.16 8.76 32.30Q9.65 34.43 11.30 35.58Q12.96 36.74 15.26 36.74ZM42.62 40.58L42.62 40.58Q39.98 40.58 37.92 39.40Q35.86 38.22 34.75 36.16L34.75 36.16L34.61 40L30.96 40L30.96 5.92L34.99 5.92L34.99 18.11Q35.95 16.53 37.97 15.26Q39.98 13.98 42.62 13.98L42.62 13.98Q45.98 13.98 48.43 15.62Q50.88 17.25 52.22 20.22Q53.57 23.20 53.57 27.28L53.57 27.28Q53.57 31.36 52.22 34.34Q50.88 37.31 48.43 38.94Q45.98 40.58 42.62 40.58ZM42.38 36.74L42.38 36.74Q45.60 36.74 47.47 34.19Q49.34 31.65 49.34 27.28L49.34 27.28Q49.34 22.86 47.47 20.34Q45.60 17.82 42.48 17.82L42.48 17.82Q40.13 17.82 38.45 18.95Q36.77 20.08 35.88 22.19Q34.99 24.30 34.99 27.28L34.99 27.28Q34.99 30.16 35.88 32.30Q36.77 34.43 38.42 35.58Q40.08 36.74 42.38 36.74Z" fill="#F97066" stroke="#F97066" stroke-width="1.5" stroke-linejoin="round"/>
</svg>
